<svg xmlns="http://www.w3.org/2000/svg" width="100%" height="auto" viewBox="0 0 70 70" version="1.1">
	<path d="M 13.729 13.770 L 5 22.540 5 35.041 L 5 47.542 13.770 56.271 L 22.540 65 35 65 L 47.460 65 56.230 56.271 L 65 47.542 65 35 L 65 22.458 56.230 13.729 L 47.460 5 34.959 5 L 22.458 5 13.729 13.770 M 29.378 19.250 C 28.962 20.488, 28.566 23.075, 28.498 25 C 28.396 27.881, 27.953 28.561, 25.989 28.845 C 24.263 29.096, 22.833 28.267, 20.811 25.845 L 18.019 22.500 18.259 37.500 L 18.500 52.500 23 52.500 L 27.500 52.500 28 43.790 C 28.412 36.607, 28.851 34.815, 30.500 33.571 C 33.285 31.472, 36.273 31.640, 39.365 34.073 C 41.839 36.019, 42 36.659, 42 44.573 L 42 53 46.500 53 L 51 53 50.964 38.250 L 50.928 23.500 48.676 26.250 C 47.227 28.021, 45.459 29, 43.712 29 C 41.247 29, 40.999 28.658, 40.986 25.250 C 40.960 17.896, 40.304 17, 34.951 17 C 30.847 17, 30.023 17.333, 29.378 19.250" stroke="none" fill="black" fill-rule="evenodd"/>
</svg>