<svg xmlns="http://www.w3.org/2000/svg" width="100%" height="auto" viewBox="0 0 70 70" version="1.1">
	<path d="M 25.500 7.279 C 12.439 12.616, 5.663 22.218, 5.585 35.500 C 5.536 43.741, 7.795 49.554, 13.504 55.872 C 17.659 60.472, 19 60.981, 19 57.960 C 19 56.838, 19.886 54.184, 20.969 52.061 C 26.727 40.774, 43.909 40.984, 49.096 52.405 C 50.119 54.657, 50.966 57.288, 50.978 58.250 C 51.012 60.971, 52.449 60.352, 56.496 55.872 C 62.213 49.545, 64.466 43.741, 64.405 35.500 C 64.317 23.513, 58.695 14.378, 48 8.841 C 42.739 6.118, 30.432 5.264, 25.500 7.279 M 27.400 20.400 C 24.549 23.251, 24 24.520, 24 28.265 C 24 36.647, 31.616 41.859, 39.220 38.681 C 51.102 33.717, 47.459 17, 34.496 17 C 31.626 17, 30.040 17.760, 27.400 20.400" stroke="none" fill="black" fill-rule="evenodd"/>
</svg>